<?xml version="1.0" encoding="utf-8"?>
<!-- Generator: Adobe Illustrator 24.1.1, SVG Export Plug-In . SVG Version: 6.00 Build 0)  -->
<svg version="1.1" id="Layer_1" xmlns="http://www.w3.org/2000/svg" xmlns:xlink="http://www.w3.org/1999/xlink" x="0px" y="0px"
	 viewBox="0 0 512 512" style="enable-background:new 0 0 512 512;" xml:space="preserve">
<style type="text/css">
	.st0{fill:#333333;}
</style>
<g id="XMLID_1_">
	<path id="XMLID_11_" class="st0" d="M503.9,127.5c8.4,12.1,10.2,25.1,5.6,40l-84.7,278.4c-3.7,13-12.1,24.2-23.3,33.5
		c-12.1,9.3-24.2,13-37.2,13H80.3c-15.8,0-30.7-5.6-45.6-16.8c-14.9-11.2-25.1-24.2-30.7-40c-4.7-14-5.6-27-0.9-39.1
		c0-0.9,0-3.7,0.9-8.4c0.9-4.7,0.9-8.4,0.9-11.2c0-1.9,0-3.7-0.9-6.5c-0.9-2.8-0.9-4.7-0.9-5.6c0-1.9,0.9-4.7,2.8-6.5
		c0.9-1.9,2.8-4.7,4.7-7.4c1.9-2.8,3.7-5.6,4.7-7.4c4.7-7.4,9.3-16.8,14-27.9c4.7-11.2,7.4-20.5,9.3-27.9c0.9-1.9,0.9-5.6,0-9.3
		c-0.9-3.7-0.9-6.5,0-8.4c0.9-1.9,2.8-5.6,5.6-8.4c2.8-3.7,4.7-5.6,5.6-7.4c4.7-7.4,8.4-16.8,13-27.9s6.5-20.5,7.4-27.9
		c0-1.9,0-5.6-0.9-10.2s-0.9-7.4,0-8.4c0.9-2.8,2.8-5.6,6.5-9.3c3.7-3.7,5.6-5.6,6.5-6.5c3.7-5.6,8.4-14,13-26.1
		c4.7-12.1,7.4-22.3,8.4-29.8c0-1.9,0-4.7-0.9-7.4c-0.9-3.7-0.9-6.5-0.9-8.4c0-1.9,0.9-3.7,2.8-5.6c1.9-1.9,3.7-4.7,5.6-7.4
		c1.9-2.8,3.7-4.7,5.6-6.5c1.9-2.8,3.7-5.6,4.7-9.3c1.9-3.7,3.7-7.4,4.7-11.2c0.9-3.7,2.8-7.4,4.7-11.2c1.9-3.7,3.7-7.4,5.6-10.2
		c1.9-2.8,4.7-4.7,8.4-7.4c3.7-1.9,7.4-3.7,11.2-3.7c3.7,0,9.3,0,14.9,1.9v0.9c7.4-1.9,13-2.8,15.8-2.8h233.7
		c14.9,0,27,5.6,35.4,16.8c8.4,11.2,10.2,25.1,5.6,40l-83.8,278.4c-7.4,24.2-14.9,40-22.3,47.5c-7.4,7.4-20.5,10.2-39.1,10.2H48.7
		c-5.6,0-9.3,1.9-12.1,4.7c-1.9,3.7-2.8,7.4,0,13c4.7,14,19.6,21.4,44.7,21.4h283.9c5.6,0,12.1-1.9,16.8-4.7
		c5.6-2.8,9.3-7.4,11.2-13l92.2-303.5c1.9-4.7,1.9-10.2,1.9-17.7C493.7,117.3,500.2,121.9,503.9,127.5z M177.2,128.5
		c-0.9,2.8-0.9,4.7,0.9,6.5c0.9,1.9,3.7,2.8,6.5,2.8h187.1c2.8,0,5.6-0.9,7.4-2.8c1.9-1.9,4.7-4.7,4.7-6.5l6.5-19.6
		c0.9-2.8,0.9-4.7-0.9-6.5s-3.7-2.8-6.5-2.8H196.7c-2.8,0-5.6,0.9-7.4,2.8c-2.8,1.9-4.7,4.7-4.7,6.5L177.2,128.5z M152,206.7
		c-0.9,2.8-0.9,4.7,0.9,6.5c1.9,1.9,3.7,2.8,6.5,2.8h187.1c2.8,0,5.6-0.9,7.4-2.8c2.8-1.9,4.7-4.7,4.7-6.5l6.5-19.6
		c0.9-2.8,0.9-4.7-0.9-6.5s-3.7-2.8-6.5-2.8H170.6c-2.8,0-5.6,0.9-7.4,2.8c-2.8,1.9-4.7,4.7-4.7,6.5L152,206.7z"/>
</g>
</svg>
